<svg width="26" height="28" viewBox="0 0 26 28" fill="none" xmlns="http://www.w3.org/2000/svg">
<path d="M15.963 3.18802C16.0039 3.13628 16.0546 3.09315 16.1123 3.0611C16.1699 3.02906 16.2333 3.00873 16.2989 3.0013C16.3644 2.99386 16.4307 2.99946 16.4941 3.01778C16.5574 3.03609 16.6165 3.06676 16.668 3.10801L17.748 3.97401L13.799 9.00002H16.343L19.311 5.22401L21.815 7.23001C21.8675 7.27202 21.9109 7.32418 21.9428 7.38337C21.9746 7.44256 21.9942 7.50756 22.0004 7.57449C22.0065 7.64142 21.9991 7.7089 21.9786 7.77291C21.9581 7.83692 21.9249 7.89613 21.881 7.94701L20.973 9.00002H23.587C23.9313 8.47977 24.0686 7.8496 23.972 7.23327C23.8755 6.61695 23.5519 6.059 23.065 5.66901L17.918 1.54701C17.6609 1.34115 17.3656 1.18813 17.0492 1.09673C16.7327 1.00534 16.4014 0.977379 16.0741 1.01446C15.7468 1.05153 15.4301 1.15292 15.1421 1.31279C14.8541 1.47265 14.6005 1.68785 14.396 1.94602L8.809 9.00002H11.36L15.963 3.18802ZM18 18C17.7348 18 17.4804 18.1054 17.2929 18.2929C17.1054 18.4804 17 18.7348 17 19C17 19.2652 17.1054 19.5196 17.2929 19.7071C17.4804 19.8947 17.7348 20 18 20H21C21.2652 20 21.5196 19.8947 21.7071 19.7071C21.8946 19.5196 22 19.2652 22 19C22 18.7348 21.8946 18.4804 21.7071 18.2929C21.5196 18.1054 21.2652 18 21 18H18ZM3 6.00001C2.20435 6.00001 1.44129 6.31609 0.87868 6.87869C0.316071 7.4413 0 8.20437 0 9.00002V23.5C0 24.6935 0.474106 25.8381 1.31802 26.682C2.16193 27.5259 3.30653 28 4.5 28H21.5C22.6935 28 23.8381 27.5259 24.682 26.682C25.5259 25.8381 26 24.6935 26 23.5V14.5C26 13.3065 25.5259 12.1619 24.682 11.318C23.8381 10.4741 22.6935 10 21.5 10H3C2.73478 10 2.48043 9.89466 2.29289 9.70712C2.10536 9.51959 2 9.26523 2 9.00002C2 8.7348 2.10536 8.48044 2.29289 8.29291C2.48043 8.10537 2.73478 8.00001 3 8.00001H7.58L9.176 6.00001H3ZM2 23.5V11.83C2.313 11.94 2.65 12 3 12H21.5C22.163 12 22.7989 12.2634 23.2678 12.7322C23.7366 13.2011 24 13.837 24 14.5V23.5C24 24.1631 23.7366 24.7989 23.2678 25.2678C22.7989 25.7366 22.163 26 21.5 26H4.5C3.83696 26 3.20107 25.7366 2.73223 25.2678C2.26339 24.7989 2 24.1631 2 23.5Z" fill="#3671CA"/>
</svg>
