<svg width="28" height="24" viewBox="0 0 28 24" fill="none" xmlns="http://www.w3.org/2000/svg">
<path d="M6.63201 17.2187H14M23.3733 3.09732L22.9853 1.64666C22.901 1.33213 22.6951 1.06398 22.4131 0.901207C22.131 0.73843 21.7959 0.694348 21.4813 0.778657L12.828 3.09732H23.3733ZM25.3587 18.1733L26.0893 17.9773C26.2451 17.9356 26.3912 17.8636 26.5192 17.7655C26.6472 17.6673 26.7545 17.5449 26.8352 17.4053C26.9159 17.2656 26.9682 17.1114 26.9893 16.9515C27.0104 16.7916 26.9997 16.6291 26.958 16.4733L25.358 10.5047L25.3587 18.1733ZM4.62667 20.9027L5.01467 22.3527C5.05638 22.5085 5.12836 22.6545 5.22652 22.7825C5.32467 22.9105 5.44708 23.0179 5.58674 23.0985C5.7264 23.1792 5.88059 23.2316 6.04049 23.2526C6.20039 23.2737 6.36288 23.2631 6.51867 23.2213L15.172 20.9027H4.62667ZM2.64134 5.82666L1.91067 6.02266C1.75487 6.06436 1.60881 6.13634 1.48084 6.2345C1.35286 6.33265 1.24547 6.45506 1.16481 6.59472C1.08414 6.73439 1.03178 6.88857 1.01071 7.04847C0.989637 7.20838 1.00027 7.37087 1.04201 7.52666L2.65134 13.532L2.64134 5.82666ZM6.63201 6.78132H21.3673H6.63201ZM6.63201 10.2607H21.3673H6.63201ZM6.63201 13.7393H21.3673H6.63201Z" stroke="white" stroke-linecap="round" stroke-linejoin="round"/>
</svg>
