<svg width="28" height="24" viewBox="0 0 28 24" fill="none" xmlns="http://www.w3.org/2000/svg">
<path d="M12 11.2C12.6365 11.2 13.247 10.9471 13.6971 10.4971C14.1471 10.047 14.4 9.43652 14.4 8.8V2.4C14.4 1.76348 14.1471 1.15303 13.6971 0.702944C13.247 0.252856 12.6365 0 12 0H2.4C1.76348 0 1.15303 0.252856 0.702944 0.702944C0.252857 1.15303 3.29979e-07 1.76348 3.29979e-07 2.4V8.8C-0.000259968 9.29652 0.153484 9.7809 0.440045 10.1864C0.726606 10.5919 1.13188 10.8985 1.6 11.064L1.6304 11.0736C1.8704 11.1552 2.1312 11.2 2.4 11.2H12ZM22.8 6.4H16V4.8H22.8C23.967 4.8 25.0861 5.26357 25.9113 6.08873C26.7364 6.91389 27.2 8.03305 27.2 9.2V19.6C27.2 20.767 26.7364 21.8861 25.9113 22.7113C25.0861 23.5364 23.967 24 22.8 24H6C4.83305 24 3.71389 23.5364 2.88873 22.7113C2.06357 21.8861 1.6 20.767 1.6 19.6V12.72C1.8592 12.7728 2.1264 12.8 2.4 12.8H3.2V19.6C3.2 21.1456 4.4544 22.4 6 22.4H22.8C23.5426 22.4 24.2548 22.105 24.7799 21.5799C25.305 21.0548 25.6 20.3426 25.6 19.6V9.2C25.6 8.45739 25.305 7.7452 24.7799 7.2201C24.2548 6.695 23.5426 6.4 22.8 6.4ZM20.8 16.4688L16.5664 12.2336C16.4162 12.0834 16.2124 11.999 16 11.999C15.7876 11.999 15.5838 12.0834 15.4336 12.2336C15.2834 12.3838 15.199 12.5876 15.199 12.8C15.199 13.0124 15.2834 13.2162 15.4336 13.3664L19.6688 17.6H16.8C16.5878 17.6 16.3843 17.6843 16.2343 17.8343C16.0843 17.9843 16 18.1878 16 18.4C16 18.6122 16.0843 18.8157 16.2343 18.9657C16.3843 19.1157 16.5878 19.2 16.8 19.2H21.6C21.8113 19.2 22.0141 19.1164 22.164 18.9674C22.3139 18.8184 22.3987 18.6161 22.4 18.4048V13.6C22.4 13.3878 22.3157 13.1843 22.1657 13.0343C22.0157 12.8843 21.8122 12.8 21.6 12.8C21.3878 12.8 21.1843 12.8843 21.0343 13.0343C20.8843 13.1843 20.8 13.3878 20.8 13.6V16.4688Z" fill="white"/>
</svg>
