<svg width="28" height="19" viewBox="0 0 28 19" fill="none" xmlns="http://www.w3.org/2000/svg">
<path d="M23.3563 6.45938C21.925 2.68438 18.2781 0 14.0063 0C9.73438 0 6.0875 2.68125 4.65625 6.45625C1.97813 7.15938 0 9.6 0 12.5C0 15.9531 2.79687 18.75 6.24687 18.75H7.5C7.6375 18.75 7.75 18.6375 7.75 18.5V16.625C7.75 16.4875 7.6375 16.375 7.5 16.375H6.24687C5.19375 16.375 4.20312 15.9562 3.46562 15.1969C2.73125 14.4406 2.34063 13.4219 2.375 12.3656C2.40313 11.5406 2.68437 10.7656 3.19375 10.1125C3.71562 9.44688 4.44688 8.9625 5.25938 8.74687L6.44375 8.4375L6.87813 7.29375C7.14688 6.58125 7.52187 5.91563 7.99375 5.3125C8.4596 4.71471 9.01142 4.18922 9.63125 3.75313C10.9156 2.85 12.4281 2.37187 14.0063 2.37187C15.5844 2.37187 17.0969 2.85 18.3813 3.75313C19.0031 4.19063 19.5531 4.71562 20.0187 5.3125C20.4906 5.91563 20.8656 6.58437 21.1344 7.29375L21.5656 8.43437L22.7469 8.74687C24.4406 9.20312 25.625 10.7437 25.625 12.5C25.625 13.5344 25.2219 14.5094 24.4906 15.2406C24.132 15.6013 23.7054 15.8873 23.2355 16.082C22.7656 16.2768 22.2618 16.3763 21.7531 16.375H20.5C20.3625 16.375 20.25 16.4875 20.25 16.625V18.5C20.25 18.6375 20.3625 18.75 20.5 18.75H21.7531C25.2031 18.75 28 15.9531 28 12.5C28 9.60312 26.0281 7.16563 23.3563 6.45938Z" fill="white"/>
</svg>
